<svg width="394" height="120" viewBox="0 0 394 120" fill="none" xmlns="http://www.w3.org/2000/svg">
<path d="M204.08 81.0422V41.8776H211.578L228.251 69.5166H224.278L240.671 41.8776H248.113L248.225 81.0422H239.72L239.664 54.9138H241.231L228.139 76.902H224.054L210.682 54.9138H212.585V81.0422H204.08ZM265.853 57.6553H284.708V64.705H265.853V57.6553ZM266.524 73.7688H287.841V81.0422H257.517V41.8776H287.114V49.151H266.524V73.7688ZM295.053 81.0422V41.8776H302.55L325.657 70.0761H322.021V41.8776H330.973V81.0422H323.531L300.368 52.8437H304.005V81.0422H295.053ZM357.639 81.7136C352.081 81.7136 347.736 80.1657 344.603 77.0698C341.47 73.974 339.903 69.5539 339.903 63.8098V41.8776H348.967V63.4741C348.967 67.2041 349.732 69.8896 351.261 71.5308C352.79 73.172 354.935 73.9926 357.695 73.9926C360.455 73.9926 362.6 73.172 364.129 71.5308C365.658 69.8896 366.423 67.2041 366.423 63.4741V41.8776H375.375V63.8098C375.375 69.5539 373.808 73.974 370.675 77.0698C367.542 80.1657 363.197 81.7136 357.639 81.7136Z" fill="#8D302C"/>
<path d="M41.5811 47.8356L15.2112 74.2229L41.5811 100.61L67.951 74.2229L41.5811 47.8356Z" fill="#8D302C"/>
<path d="M68.6234 20.2817L42.2535 46.669L68.6234 73.0563L94.9933 46.669L68.6234 20.2817Z" fill="#39445C"/>
<path d="M122.708 20.2817L96.338 46.669L122.708 73.0563L149.078 46.669L122.708 20.2817Z" fill="#39445C"/>
<path d="M95.6657 47.8356L69.2958 74.2229L95.6657 100.61L122.036 74.2229L95.6657 47.8356Z" fill="#39445C"/>
<path d="M149.75 47.8356L123.38 74.2229L149.75 100.61L176.12 74.2229L149.75 47.8356Z" fill="#8D302C"/>
</svg>
