<svg width="409" height="198" viewBox="0 0 409 198" fill="none" xmlns="http://www.w3.org/2000/svg">
<path d="M68.0421 194.575C66.8219 195.777 64.8666 195.777 63.6465 194.575L3.55721 135.392C2.30562 134.159 2.30564 132.137 3.55724 130.904L63.6465 71.7213C64.8666 70.5198 66.8219 70.5197 68.0421 71.7213L128.131 130.904C129.383 132.137 129.383 134.159 128.131 135.392L68.0421 194.575Z" fill="#983732" stroke="#414D67" stroke-width="0.254164"/>
<path d="M205.152 194.575C203.931 195.777 201.976 195.777 200.756 194.575L140.666 135.392C139.415 134.16 139.415 132.137 140.666 130.905L200.756 71.7213C201.976 70.5198 203.931 70.5198 205.152 71.7213L265.241 130.905C266.492 132.137 266.492 134.16 265.241 135.392L205.152 194.575Z" fill="#414D67" stroke="#414D67" stroke-width="0.254164"/>
<path d="M136.149 126.278C134.929 127.48 132.974 127.48 131.754 126.278L71.6638 67.0946C70.4126 65.8618 70.4126 63.8393 71.6646 62.6066L131.754 3.42425C132.974 2.2225 134.929 2.2225 136.149 3.42424L196.238 62.6066C197.49 63.8393 197.49 65.8618 196.238 67.0946L136.149 126.278Z" fill="#414D67" stroke="#414D67" stroke-width="0.254164"/>
<path d="M274.153 126.278C272.933 127.48 270.978 127.48 269.758 126.278L209.669 67.0959C208.417 65.8632 208.417 63.8407 209.669 62.608L269.758 3.42431C270.978 2.22254 272.933 2.22254 274.153 3.42431L334.243 62.608C335.494 63.8407 335.494 65.8632 334.243 67.0959L274.153 126.278Z" fill="#414D67" stroke="#414D67" stroke-width="0.254164"/>
<path d="M343.156 194.575C341.935 195.777 339.981 195.777 338.76 194.575L278.671 135.392C277.419 134.16 277.419 132.137 278.671 130.905L338.76 71.7213C339.981 70.5198 341.935 70.5198 343.156 71.7213L403.245 130.905C404.497 132.137 404.497 134.16 403.245 135.392L343.156 194.575Z" fill="#983732" stroke="#414D67" stroke-width="0.254164"/>
</svg>
